<svg xmlns="http://www.w3.org/2000/svg" viewBox="0 0 640 360" preserveAspectRatio="xMidYMid meet" role="img" aria-labelledby="title desc" data-game="eclipse-watch" data-level-id="first-umbra" data-state="solved" data-solution="0,0,1,0,1,1,0,0,0,0,0,1,0,0,1,0,0,0,1,0,0,0,0,0,0" data-complete="true" data-verified-readings="6:5,9:4,10:3,12:5,13:4,19:2,20:7,21:6,23:5,24:6" data-source="range">
  <title id="title">初蚀光幕的真实通关状态</title>
  <desc id="desc">5乘5棋盘有六个互不相邻黑影。十盏读数灯均符合可见白格数，所有非黑格保持正交连通。</desc>
  <defs><linearGradient id="bg" x1="0" x2="1" y1="0" y2="1"><stop stop-color="#101638"/><stop offset="1" stop-color="#583d70"/></linearGradient><style>.w{fill:#b9edf8;stroke:#fff0bc;stroke-width:1.5}.b{fill:#080911;stroke:#7d839d;stroke-width:1.5}.n{fill:#15264a;font:700 19px Georgia,serif;text-anchor:middle}.copy{fill:#d4e1f6;font:600 15px sans-serif}</style></defs>
  <rect width="640" height="360" rx="25" fill="url(#bg)"/><text x="32" y="43" fill="#b5caf8" font-family="sans-serif" font-size="12" font-weight="700" letter-spacing="2">真实首关 · 通关状态</text><text x="32" y="78" fill="#fff1d9" font-family="Georgia,serif" font-size="27" font-weight="700">所有光束同时归位</text>
  <g transform="translate(302 45)" aria-label="初蚀光幕完整解"><rect width="276" height="276" rx="18" fill="#070d24" stroke="#c9e6ff" stroke-opacity=".48" stroke-width="2"/>
    <g><rect x="8" y="8" width="48" height="48" rx="8" class="w"/><rect x="62" y="8" width="48" height="48" rx="8" class="w"/><rect x="116" y="8" width="48" height="48" rx="8" class="b"/><rect x="170" y="8" width="48" height="48" rx="8" class="w"/><rect x="224" y="8" width="48" height="48" rx="8" class="b"/><rect x="8" y="62" width="48" height="48" rx="8" class="b"/><rect x="62" y="62" width="48" height="48" rx="8" class="w"/><rect x="116" y="62" width="48" height="48" rx="8" class="w"/><rect x="170" y="62" width="48" height="48" rx="8" class="w"/><rect x="224" y="62" width="48" height="48" rx="8" class="w"/><rect x="8" y="116" width="48" height="48" rx="8" class="w"/><rect x="62" y="116" width="48" height="48" rx="8" class="b"/><rect x="116" y="116" width="48" height="48" rx="8" class="w"/><rect x="170" y="116" width="48" height="48" rx="8" class="w"/><rect x="224" y="116" width="48" height="48" rx="8" class="b"/><rect x="8" y="170" width="48" height="48" rx="8" class="w"/><rect x="62" y="170" width="48" height="48" rx="8" class="w"/><rect x="116" y="170" width="48" height="48" rx="8" class="w"/><rect x="170" y="170" width="48" height="48" rx="8" class="b"/><rect x="224" y="170" width="48" height="48" rx="8" class="w"/><rect x="8" y="224" width="48" height="48" rx="8" class="w"/><rect x="62" y="224" width="48" height="48" rx="8" class="w"/><rect x="116" y="224" width="48" height="48" rx="8" class="w"/><rect x="170" y="224" width="48" height="48" rx="8" class="w"/><rect x="224" y="224" width="48" height="48" rx="8" class="w"/></g>
    <g class="n"><text x="86" y="94">5</text><text x="248" y="94">4</text><text x="32" y="148">3</text><text x="140" y="148">5</text><text x="194" y="148">4</text><text x="248" y="202">2</text><text x="32" y="256">7</text><text x="86" y="256">6</text><text x="194" y="256">5</text><text x="248" y="256">6</text></g>
    <g fill="#fbfdff"><circle cx="140" cy="32" r="14"/><circle cx="248" cy="32" r="14"/><circle cx="32" cy="86" r="14"/><circle cx="86" cy="140" r="14"/><circle cx="248" cy="140" r="14"/><circle cx="194" cy="194" r="14"/></g><g fill="#858ca4"><circle cx="136" cy="28" r="2"/><circle cx="244" cy="28" r="2"/><circle cx="28" cy="82" r="2"/><circle cx="82" cy="136" r="2"/><circle cx="244" cy="136" r="2"/><circle cx="190" cy="190" r="2"/></g>
  </g>
  <g transform="translate(32 120)"><circle cx="11" cy="11" r="8" fill="#c9ffcb"/><path d="M7 11 l3 3 6-7" fill="none" stroke="#183447" stroke-width="2"/><text x="30" y="16" class="copy">十盏读数灯全部精确</text><circle cx="11" cy="51" r="8" fill="#c9ffcb"/><path d="M7 51 l3 3 6-7" fill="none" stroke="#183447" stroke-width="2"/><text x="30" y="56" class="copy">6 个黑影没有正交接触</text><circle cx="11" cy="91" r="8" fill="#c9ffcb"/><path d="M7 91 l3 3 6-7" fill="none" stroke="#183447" stroke-width="2"/><text x="30" y="96" class="copy">所有白格仍然连通</text><circle cx="11" cy="131" r="8" fill="#c9ffcb"/><path d="M7 131 l3 3 6-7" fill="none" stroke="#183447" stroke-width="2"/><text x="30" y="136" class="copy">白点笔记不会参与判定</text></g>
  <rect x="32" y="298" width="240" height="34" rx="17" fill="#c9ffcb"/><text x="152" y="320" fill="#173a47" font-family="sans-serif" font-size="14" font-weight="800" text-anchor="middle">三条规则同时满足 · 通关</text>
</svg>
