<svg xmlns="http://www.w3.org/2000/svg" width="512" height="512" viewBox="0 0 512 512"><defs><linearGradient id="s" x2="0" y2="1"><stop stop-color="#214f58"/><stop offset="1" stop-color="#071c2a"/></linearGradient><linearGradient id="a"><stop stop-color="#438980" stop-opacity="0"/><stop offset=".5" stop-color="#adedd0"/><stop offset="1" stop-color="#7bb7ba" stop-opacity="0"/></linearGradient></defs><rect width="512" height="512" rx="96" fill="url(#s)"/><path d="M-20 228Q200 260 490 60M-20 150Q180 250 525 95" fill="none" stroke="url(#a)" stroke-width="34" opacity=".55"/><path d="M0 410L123 335 253 392 411 303 512 370V512H0" fill="#557680"/><path d="M0 453L176 398 362 440 512 393V512H0" fill="#86a09f"/><rect x="158" y="231" width="196" height="159" rx="31" fill="#19343f" stroke="#d0a97c" stroke-width="9"/><path d="M256 147V232" stroke="#d0a97c" stroke-width="9"/><circle cx="256" cy="155" r="19" fill="#c3f4cf"/><circle cx="256" cy="155" r="34" fill="none" stroke="#a5e0c4" opacity=".3" stroke-width="9"/><rect x="177" y="253" width="65" height="112" rx="20" fill="#826448"/><rect x="270" y="253" width="65" height="112" rx="20" fill="#526f82"/><path d="M193 308H226M209 292V324M286 308H318" stroke="#f9edcf" stroke-width="8" stroke-linecap="round"/><path d="M251 274V345" stroke="#d0a97c" opacity=".5" stroke-width="3"/></svg>
