<svg xmlns="http://www.w3.org/2000/svg" viewBox="0 0 420 320"><circle cx="238" cy="128" r="105" fill="#ced9c5"/><circle cx="305" cy="68" r="25" fill="#f8edd0"/><path d="M10 265 Q 190 190 410 265 L370 290 70 290Z" fill="#adbca0"/><rect x="28" y="202" width="29" height="55" rx="3" fill="#ba795c"/><path d="M28 202 l14 -9 15 9" fill="#e8caae"/><rect x="35" y="217" width="5" height="8" rx="1" fill="#fff4d9" opacity=".8"/><rect x="35" y="237" width="5" height="8" rx="1" fill="#fff4d9" opacity=".8"/><rect x="35" y="257" width="5" height="8" rx="1" fill="#fff4d9" opacity=".8"/><rect x="60" y="155" width="29" height="102" rx="3" fill="#d7aa85"/><path d="M60 155 l14 -9 15 9" fill="#e8caae"/><rect x="67" y="170" width="5" height="8" rx="1" fill="#fff4d9" opacity=".8"/><rect x="67" y="190" width="5" height="8" rx="1" fill="#fff4d9" opacity=".8"/><rect x="67" y="210" width="5" height="8" rx="1" fill="#fff4d9" opacity=".8"/><rect x="92" y="108" width="29" height="149" rx="3" fill="#8a9b80"/><path d="M92 108 l14 -9 15 9" fill="#e8caae"/><rect x="99" y="123" width="5" height="8" rx="1" fill="#fff4d9" opacity=".8"/><rect x="99" y="143" width="5" height="8" rx="1" fill="#fff4d9" opacity=".8"/><rect x="99" y="163" width="5" height="8" rx="1" fill="#fff4d9" opacity=".8"/><rect x="124" y="191" width="29" height="66" rx="3" fill="#bd9679"/><path d="M124 191 l14 -9 15 9" fill="#e8caae"/><rect x="131" y="206" width="5" height="8" rx="1" fill="#fff4d9" opacity=".8"/><rect x="131" y="226" width="5" height="8" rx="1" fill="#fff4d9" opacity=".8"/><rect x="131" y="246" width="5" height="8" rx="1" fill="#fff4d9" opacity=".8"/><rect x="156" y="144" width="29" height="113" rx="3" fill="#ba795c"/><path d="M156 144 l14 -9 15 9" fill="#e8caae"/><rect x="163" y="159" width="5" height="8" rx="1" fill="#fff4d9" opacity=".8"/><rect x="163" y="179" width="5" height="8" rx="1" fill="#fff4d9" opacity=".8"/><rect x="163" y="199" width="5" height="8" rx="1" fill="#fff4d9" opacity=".8"/><rect x="188" y="97" width="29" height="160" rx="3" fill="#d7aa85"/><path d="M188 97 l14 -9 15 9" fill="#e8caae"/><rect x="195" y="112" width="5" height="8" rx="1" fill="#fff4d9" opacity=".8"/><rect x="195" y="132" width="5" height="8" rx="1" fill="#fff4d9" opacity=".8"/><rect x="195" y="152" width="5" height="8" rx="1" fill="#fff4d9" opacity=".8"/><rect x="220" y="180" width="29" height="77" rx="3" fill="#8a9b80"/><path d="M220 180 l14 -9 15 9" fill="#e8caae"/><rect x="227" y="195" width="5" height="8" rx="1" fill="#fff4d9" opacity=".8"/><rect x="227" y="215" width="5" height="8" rx="1" fill="#fff4d9" opacity=".8"/><rect x="227" y="235" width="5" height="8" rx="1" fill="#fff4d9" opacity=".8"/><rect x="252" y="133" width="29" height="124" rx="3" fill="#bd9679"/><path d="M252 133 l14 -9 15 9" fill="#e8caae"/><rect x="259" y="148" width="5" height="8" rx="1" fill="#fff4d9" opacity=".8"/><rect x="259" y="168" width="5" height="8" rx="1" fill="#fff4d9" opacity=".8"/><rect x="259" y="188" width="5" height="8" rx="1" fill="#fff4d9" opacity=".8"/><rect x="284" y="86" width="29" height="171" rx="3" fill="#ba795c"/><path d="M284 86 l14 -9 15 9" fill="#e8caae"/><rect x="291" y="101" width="5" height="8" rx="1" fill="#fff4d9" opacity=".8"/><rect x="291" y="121" width="5" height="8" rx="1" fill="#fff4d9" opacity=".8"/><rect x="291" y="141" width="5" height="8" rx="1" fill="#fff4d9" opacity=".8"/><rect x="316" y="169" width="29" height="88" rx="3" fill="#d7aa85"/><path d="M316 169 l14 -9 15 9" fill="#e8caae"/><rect x="323" y="184" width="5" height="8" rx="1" fill="#fff4d9" opacity=".8"/><rect x="323" y="204" width="5" height="8" rx="1" fill="#fff4d9" opacity=".8"/><rect x="323" y="224" width="5" height="8" rx="1" fill="#fff4d9" opacity=".8"/><rect x="348" y="122" width="29" height="135" rx="3" fill="#8a9b80"/><path d="M348 122 l14 -9 15 9" fill="#e8caae"/><rect x="355" y="137" width="5" height="8" rx="1" fill="#fff4d9" opacity=".8"/><rect x="355" y="157" width="5" height="8" rx="1" fill="#fff4d9" opacity=".8"/><rect x="355" y="177" width="5" height="8" rx="1" fill="#fff4d9" opacity=".8"/><path d="M0 256 Q90 227 185 262 T420 251 L420 320H0Z" fill="#e7ecdf" opacity=".85"/><path d="M34 290 Q200 245 392 284" fill="none" stroke="#faf7e9" stroke-width="12"/></svg>