<svg xmlns="http://www.w3.org/2000/svg" width="512" height="512" viewBox="0 0 512 512">
<defs><linearGradient id="night" x2="1" y2="1"><stop stop-color="#604551"/><stop offset="1" stop-color="#302d39"/></linearGradient><linearGradient id="light" x2="0" y2="1"><stop stop-color="#ffe9af"/><stop offset="1" stop-color="#d79863"/></linearGradient></defs>
<rect width="512" height="512" rx="110" fill="url(#night)"/>
<circle cx="387" cy="104" r="45" fill="#e9c77e" opacity=".92"/><circle cx="402" cy="92" r="40" fill="#51404b"/>
<path d="M64 211 145 129H367l81 82-30 22H94z" fill="#b66e66" stroke="#f0b879" stroke-width="12" stroke-linejoin="round"/>
<rect x="101" y="225" width="310" height="215" rx="26" fill="#e7b58c" stroke="#663f4a" stroke-width="15"/>
<path d="M256 225v215" stroke="#663f4a" stroke-width="14"/>
<rect x="130" y="248" width="104" height="155" rx="49" fill="#5b414c"/>
<rect x="278" y="248" width="104" height="155" rx="49" fill="#5b414c"/>
<circle cx="182" cy="332" r="42" fill="#c87867"/><path d="M142 298 154 264l26 28M184 289l24-31 16 43" fill="#c87867"/>
<circle cx="330" cy="332" r="42" fill="#d6a054"/><path d="M294 303 283 269l29 17M348 286l28-18-11 40" fill="#d6a054"/>
<ellipse cx="171" cy="331" rx="5" ry="8" fill="#3f3542"/><ellipse cx="193" cy="331" rx="5" ry="8" fill="#3f3542"/>
<ellipse cx="319" cy="331" rx="5" ry="8" fill="#3f3542"/><ellipse cx="341" cy="331" rx="5" ry="8" fill="#3f3542"/>
<path d="M177 352q6 7 12 0M325 352q6 7 12 0" fill="none" stroke="#493941" stroke-width="4" stroke-linecap="round"/>
<path d="M236 98v54M276 98v54" stroke="#e6bd77" stroke-width="5"/><rect x="214" y="148" width="84" height="54" rx="20" fill="url(#light)" stroke="#7d4d51" stroke-width="6"/><text x="256" y="185" fill="#805259" font-size="32" text-anchor="middle" font-family="serif">宿</text>
<path d="M76 455h360" stroke="#f1c78d" stroke-width="8" stroke-linecap="round"/>
</svg>
