<svg xmlns="http://www.w3.org/2000/svg" viewBox="0 0 320 184" preserveAspectRatio="xMidYMid meet" role="img" aria-label="冰窗校极真实通关画面：作者解 NNNNRNFF 完整填入四乘四棋盘，全部正负线索精确匹配且没有同极相邻，极光点亮" data-level-id="ice-window" data-tutorial-scene="goal" data-state="solved" data-solution="NNNNRNFF" data-column-plus="1,1,1,0" data-column-minus="1,1,0,1" data-row-plus="0,0,1,2" data-row-minus="0,0,1,2">
  <title>冰窗校极：真实作者解通关画面</title>
  <desc>四乘四冰窗校极棋盘按作者解 NNNNRNFF 填满。前两行均为中性，第三行为负正和中性，第四行为正负正负；四周每条线索均显示勾选。</desc>
  <defs>
    <linearGradient id="bg" x1="0" y1="0" x2="1" y2="1"><stop stop-color="#041226"/><stop offset=".58" stop-color="#102a55"/><stop offset="1" stop-color="#1d1042"/></linearGradient>
    <radialGradient id="plus" cx="35%" cy="28%" r="75%"><stop stop-color="#b8fff7"/><stop offset=".4" stop-color="#31e7df"/><stop offset="1" stop-color="#079eae"/></radialGradient>
    <linearGradient id="minus" x1="0" y1="0" x2="1" y2="1"><stop stop-color="#ff83db"/><stop offset="1" stop-color="#bd278f"/></linearGradient>
    <linearGradient id="neutral" x1="0" y1="0" x2="1" y2="1"><stop stop-color="#ffe093"/><stop offset="1" stop-color="#d58a2d"/></linearGradient>
    <filter id="glow" x="-30%" y="-120%" width="160%" height="340%"><feGaussianBlur stdDeviation="3" result="b"/><feMerge><feMergeNode in="b"/><feMergeNode in="SourceGraphic"/></feMerge></filter>
  </defs>
  <rect width="320" height="184" rx="16" fill="url(#bg)"/>
  <path d="M-22 29C42-8 80 37 132 15s92-10 130 14 67 11 90-8" fill="none" stroke="#46f0cc" stroke-opacity=".64" stroke-width="11" filter="url(#glow)"/>
  <path d="M-15 39C46 15 88 49 141 29s92-8 130 11 52 5 70-4" fill="none" stroke="#db57f2" stroke-opacity=".42" stroke-width="8" filter="url(#glow)"/>
  <g font-family="system-ui, PingFang SC, sans-serif">
    <text x="16" y="19" fill="#f4fbff" font-size="11" font-weight="800">03 · 冰窗校极真实完成态</text>
    <g fill="#7bffb2" font-size="7.5" font-weight="900" text-anchor="middle"><text x="65.5" y="43">+1✓</text><text x="88.5" y="43">+1✓</text><text x="111.5" y="43">+1✓</text><text x="134.5" y="43">+0✓</text></g>
    <rect x="54" y="47" width="92" height="92" rx="6" fill="#08192b" stroke="#9fd5df" stroke-width="1.5"/>
    <g fill="#112a48" stroke="#4d7597" stroke-width=".8"><rect x="55" y="48" width="44" height="21" rx="4"/><rect x="101" y="48" width="44" height="21" rx="4"/><rect x="55" y="71" width="44" height="21" rx="4"/><rect x="101" y="71" width="44" height="21" rx="4"/><rect x="55" y="94" width="44" height="21" rx="4"/><rect x="101" y="94" width="44" height="21" rx="4"/><rect x="55" y="117" width="44" height="21" rx="4"/><rect x="101" y="117" width="44" height="21" rx="4"/></g>
    <g stroke="#2d5676"><path d="M77 48v21M123 48v21M77 71v21M123 71v21M77 94v21M123 94v21M77 117v21M123 117v21"/></g>
    <g fill="#7bffb2" font-size="7.5" font-weight="900" text-anchor="end"><text x="49" y="62">+0✓</text><text x="49" y="85">+0✓</text><text x="49" y="108">+1✓</text><text x="49" y="131">+2✓</text></g>
    <g fill="#7bffb2" font-size="7.5" font-weight="900"><text x="151" y="62">−0✓</text><text x="151" y="85">−0✓</text><text x="151" y="108">−1✓</text><text x="151" y="131">−2✓</text></g>
    <g fill="#7bffb2" font-size="7.5" font-weight="900" text-anchor="middle"><text x="65.5" y="150">−1✓</text><text x="88.5" y="150">−1✓</text><text x="111.5" y="150">−0✓</text><text x="134.5" y="150">−1✓</text></g>
    <g font-size="7" font-weight="900" text-anchor="middle">
      <g fill="url(#neutral)" stroke="#fff0bf"><path d="M59 52l7-4 7 4v13l-7 4-7-4z"/><path d="M81 52l7-4 7 4v13l-7 4-7-4z"/><path d="M105 52l7-4 7 4v13l-7 4-7-4z"/><path d="M127 52l7-4 7 4v13l-7 4-7-4z"/><path d="M59 75l7-4 7 4v13l-7 4-7-4z"/><path d="M81 75l7-4 7 4v13l-7 4-7-4z"/><path d="M105 75l7-4 7 4v13l-7 4-7-4z"/><path d="M127 75l7-4 7 4v13l-7 4-7-4z"/><path d="M105 98l7-4 7 4v13l-7 4-7-4z"/><path d="M127 98l7-4 7 4v13l-7 4-7-4z"/></g>
      <g fill="#523310"><text x="66" y="61">中</text><text x="88" y="61">中</text><text x="112" y="61">中</text><text x="134" y="61">中</text><text x="66" y="84">中</text><text x="88" y="84">中</text><text x="112" y="84">中</text><text x="134" y="84">中</text><text x="112" y="107">中</text><text x="134" y="107">中</text></g>
      <path d="M66 97l10 8-10 8-10-8z" fill="url(#minus)" stroke="#ffd5f3"/><text x="66" y="108" fill="#4b073b">− 负</text>
      <circle cx="88" cy="105" r="9" fill="url(#plus)" stroke="#d7fffb"/><text x="88" y="108" fill="#04303a">+ 正</text>
      <circle cx="66" cy="128" r="9" fill="url(#plus)" stroke="#d7fffb"/><text x="66" y="131" fill="#04303a">+ 正</text>
      <path d="M88 120l10 8-10 8-10-8z" fill="url(#minus)" stroke="#ffd5f3"/><text x="88" y="131" fill="#4b073b">− 负</text>
      <circle cx="112" cy="128" r="9" fill="url(#plus)" stroke="#d7fffb"/><text x="112" y="131" fill="#04303a">+ 正</text>
      <path d="M134 120l10 8-10 8-10-8z" fill="url(#minus)" stroke="#ffd5f3"/><text x="134" y="131" fill="#4b073b">− 负</text>
    </g>
    <rect x="181" y="39" width="124" height="124" rx="13" fill="#08172e" stroke="#53c7b6"/>
    <circle cx="243" cy="67" r="20" fill="#0d463e" stroke="#6ee3b3" stroke-width="2"/><path d="M233 67l7 7 14-17" fill="none" stroke="#bdf8dd" stroke-width="4" stroke-linecap="round" stroke-linejoin="round"/>
    <text x="243" y="99" text-anchor="middle" fill="#f4fbff" font-size="11" font-weight="900">磁场完全稳定</text>
    <text x="194" y="119" fill="#bdf8dd" font-size="8">✓ 8 个槽位全部明确</text>
    <text x="194" y="135" fill="#bdf8dd" font-size="8">✓ 16 条线索精确吻合</text>
    <text x="194" y="151" fill="#bdf8dd" font-size="8">✓ 同性正交冲突为 0</text>
    <text x="243" y="159" text-anchor="middle" fill="#67f2e6" font-size="7" font-weight="800">作者解 NNNNRNFF · 极光点亮</text>
  </g>
</svg>
