<svg xmlns="http://www.w3.org/2000/svg" viewBox="0 0 800 450" preserveAspectRatio="xMidYMid meet" role="img" aria-labelledby="title desc" data-tutorial-level="orbit-window" data-level-id="orbit-window" data-state="action" data-action="scan:0" data-mines="4,10,20,24" data-revealed="0,1,2,3,5,6,7,8,9,11,12,13,14,16,17,18,19,21,22,23" data-seed="31011">
  <title id="title">星屑勘测站：真实零值扩展</title>
  <desc id="desc">舷窗零校准中扫描 index 0 后的真实局面。零值扩展揭开二十个安全星域。</desc>
  <defs>
    <linearGradient id="bg" x1="0" y1="0" x2="1" y2="1"><stop stop-color="#071a36"/><stop offset="1" stop-color="#160c35"/></linearGradient>
    <linearGradient id="covered" x1="0" y1="0" x2="1" y2="1"><stop stop-color="#1f5786"/><stop offset="1" stop-color="#10355e"/></linearGradient>
    <g id="covered"><rect width="52" height="52" rx="9" fill="url(#covered)" stroke="#b8edff" stroke-opacity=".35"/><circle cx="26" cy="26" r="11" fill="none" stroke="#b7f8ff" stroke-opacity=".72"/><path d="M26 12v28M12 26h28" stroke="#d9fbff" stroke-opacity=".42"/></g>
    <g id="zero"><rect width="52" height="52" rx="9" fill="#102e50" stroke="#86e7e3" stroke-opacity=".25"/><circle cx="26" cy="26" r="4" fill="#a3f5ef" opacity=".75"/></g>
    <g id="one"><rect width="52" height="52" rx="9" fill="#102e50" stroke="#86e7e3" stroke-opacity=".25"/><text x="26" y="35" fill="#78e4ff" text-anchor="middle" font-family="ui-monospace, monospace" font-size="25" font-weight="800">1</text></g>
    <g id="two"><rect width="52" height="52" rx="9" fill="#102e50" stroke="#86e7e3" stroke-opacity=".25"/><text x="26" y="35" fill="#ffcc77" text-anchor="middle" font-family="ui-monospace, monospace" font-size="25" font-weight="800">2</text></g>
  </defs>
  <rect width="800" height="450" rx="24" fill="url(#bg)"/>
  <g fill="#fff" opacity=".55"><circle cx="45" cy="38" r="1"/><circle cx="522" cy="60" r="1.2"/><circle cx="742" cy="389" r="1"/><circle cx="412" cy="408" r=".8"/></g>
  <text x="48" y="48" fill="#86f1eb" font-family="system-ui, sans-serif" font-size="13" font-weight="700" letter-spacing="2">真实教程关 · 一次合法操作</text>
  <text x="48" y="76" fill="#ecf8ff" font-family="Georgia, serif" font-size="25" font-weight="700">扫描 index 0，零值向外展开</text>
  <g transform="translate(48 100)">
    <rect x="-10" y="-10" width="312" height="312" rx="18" fill="#06142a" stroke="#7dece5" stroke-opacity=".34"/>
    <g transform="translate(0 0)"><use href="#zero"/></g><g transform="translate(60 0)"><use href="#zero"/></g><g transform="translate(120 0)"><use href="#zero"/></g><g transform="translate(180 0)"><use href="#one"/></g><g transform="translate(240 0)"><use href="#covered"/></g>
    <g transform="translate(0 60)"><use href="#one"/></g><g transform="translate(60 60)"><use href="#one"/></g><g transform="translate(120 60)"><use href="#zero"/></g><g transform="translate(180 60)"><use href="#one"/></g><g transform="translate(240 60)"><use href="#one"/></g>
    <g transform="translate(0 120)"><use href="#covered"/></g><g transform="translate(60 120)"><use href="#one"/></g><g transform="translate(120 120)"><use href="#zero"/></g><g transform="translate(180 120)"><use href="#zero"/></g><g transform="translate(240 120)"><use href="#zero"/></g>
    <g transform="translate(0 180)"><use href="#covered"/></g><g transform="translate(60 180)"><use href="#two"/></g><g transform="translate(120 180)"><use href="#zero"/></g><g transform="translate(180 180)"><use href="#one"/></g><g transform="translate(240 180)"><use href="#one"/></g>
    <g transform="translate(0 240)"><use href="#covered"/></g><g transform="translate(60 240)"><use href="#one"/></g><g transform="translate(120 240)"><use href="#zero"/></g><g transform="translate(180 240)"><use href="#one"/></g><g transform="translate(240 240)"><use href="#covered"/></g>
  </g>
  <path d="M319 272 C386 269 395 260 445 259" fill="none" stroke="#7ceee5" stroke-width="2" stroke-dasharray="5 6"/><path d="M445 259l-12-7v14z" fill="#7ceee5"/>
  <g transform="translate(445 145)"><rect width="308" height="155" rx="18" fill="#ffffff0d" stroke="#83eee8" stroke-opacity=".44"/><text x="22" y="35" fill="#83eee8" font-family="system-ui, sans-serif" font-size="14" font-weight="700">0 值自动扩展</text><text x="22" y="63" fill="#d8e7f5" font-family="system-ui, sans-serif" font-size="14">被揭开的 0 会继续扫描相邻安全格。</text><text x="22" y="89" fill="#d8e7f5" font-family="system-ui, sans-serif" font-size="14">边缘的 1、2 是下一步真正的八向线索。</text><text x="22" y="120" fill="#ffe68a" font-family="system-ui, sans-serif" font-size="14" font-weight="700">仍覆盖的格不等于扰动</text><text x="22" y="143" fill="#bdcee2" font-family="system-ui, sans-serif" font-size="13">它们可能是安全格，也可能需要黄旗标记。</text></g>
  <g transform="translate(445 324)"><rect width="308" height="57" rx="15" fill="#ffffff09"/><path d="M29 17v28" stroke="#ffd970" stroke-width="3"/><path d="M31 18l19 8-19 8z" fill="#ffd970"/><text x="70" y="35" fill="#eaf7ff" font-family="system-ui, sans-serif" font-size="14">切换“标记扰动”可留下黄旗笔记</text></g>
  <text x="48" y="430" fill="#8fa9c7" font-family="ui-monospace, monospace" font-size="11">data-state=action · data-action=scan:0 · revealed-safe=20</text>
</svg>
