<svg xmlns="http://www.w3.org/2000/svg" viewBox="0 0 720 420" role="img" aria-labelledby="title description" data-tutorial-version="1" data-game-id="molten-core-vent" data-level-id="ember-gate-1101" data-state="operation" data-action="0,0:B" data-before-filled="0" data-after-filled="1" data-satisfied-clues="1" data-cycle="false">
  <title id="title">余烬一号闸的第一次真实操作</title>
  <desc id="description">点按左上格，从空白正向循环为反斜线导流板，左上角数字1测点随即精确满足。</desc>
  <defs>
    <linearGradient id="bg" x1="0" y1="0" x2="1" y2="1"><stop stop-color="#160e1d"/><stop offset=".55" stop-color="#2b1519"/><stop offset="1" stop-color="#071d22"/></linearGradient>
    <linearGradient id="stone" x1="0" y1="0" x2="1" y2="1"><stop stop-color="#443638"/><stop offset=".52" stop-color="#1c1c23"/><stop offset="1" stop-color="#0d1519"/></linearGradient>
    <linearGradient id="ceramic" x1="0" y1="0" x2="1" y2="1"><stop stop-color="#fff8e8"/><stop offset=".48" stop-color="#ffd39b"/><stop offset="1" stop-color="#b96f3d"/></linearGradient>
    <radialGradient id="gauge" cx="35%" cy="28%"><stop stop-color="#fff0bd"/><stop offset=".55" stop-color="#eaa85c"/><stop offset="1" stop-color="#8f4f30"/></radialGradient>
    <radialGradient id="cool" cx="35%" cy="28%"><stop stop-color="#eaffff"/><stop offset=".55" stop-color="#62eadf"/><stop offset="1" stop-color="#167f83"/></radialGradient>
    <filter id="glow"><feGaussianBlur stdDeviation="3" result="b"/><feMerge><feMergeNode in="b"/><feMergeNode in="SourceGraphic"/></feMerge></filter>
  </defs>
  <rect width="720" height="420" rx="28" fill="url(#bg)"/>
  <text x="30" y="42" fill="#ffbe78" font-family="system-ui, sans-serif" font-size="14" font-weight="800" letter-spacing="2">02 · 一次真实操作</text>
  <text x="30" y="67" fill="#fff6e8" font-family="system-ui, sans-serif" font-size="20" font-weight="750">点一下：空 → \</text>

  <g font-family="system-ui, sans-serif" text-anchor="middle">
    <text x="155" y="94" fill="#a99aa0" font-size="12" font-weight="750">操作前 · 0 / 16</text>
    <text x="565" y="94" fill="#6fe9df" font-size="12" font-weight="750">操作后 · 1 / 16</text>
  </g>

  <g data-before-board="true" transform="translate(50 112)">
    <rect width="210" height="210" rx="13" fill="#0b1116" stroke="#6b4d43" stroke-width="3"/>
    <path d="M52.5 0V210M105 0V210M157.5 0V210M0 52.5H210M0 105H210M0 157.5H210" stroke="#5a4946" stroke-width="3"/>
    <rect x="5" y="5" width="42.5" height="42.5" rx="7" fill="url(#stone)" stroke="#ff9b55" stroke-width="3"/>
    <g fill="url(#stone)" opacity=".78">
      <rect x="57" y="5" width="43" height="42" rx="7"/><rect x="110" y="5" width="42" height="42" rx="7"/><rect x="162" y="5" width="43" height="42" rx="7"/>
      <rect x="5" y="57" width="42" height="43" rx="7"/><rect x="57" y="57" width="43" height="43" rx="7"/><rect x="110" y="57" width="42" height="43" rx="7"/><rect x="162" y="57" width="43" height="43" rx="7"/>
      <rect x="5" y="110" width="42" height="42" rx="7"/><rect x="57" y="110" width="43" height="42" rx="7"/><rect x="110" y="110" width="42" height="42" rx="7"/><rect x="162" y="110" width="43" height="42" rx="7"/>
      <rect x="5" y="162" width="42" height="43" rx="7"/><rect x="57" y="162" width="43" height="43" rx="7"/><rect x="110" y="162" width="42" height="43" rx="7"/><rect x="162" y="162" width="43" height="43" rx="7"/>
    </g>
    <g fill="url(#gauge)" stroke="#351b18" stroke-width="1.5" font-family="system-ui, sans-serif" font-size="9" font-weight="900" text-anchor="middle" dominant-baseline="central">
      <g><circle r="10"/><text fill="#2b1515">1</text></g><g transform="translate(52.5)"><circle r="10"/><text fill="#2b1515">0</text></g><g transform="translate(210)"><circle r="10"/><text fill="#2b1515">0</text></g>
      <g transform="translate(0 52.5)"><circle r="10"/><text fill="#2b1515">0</text></g><g transform="translate(52.5 52.5)"><circle r="10"/><text fill="#2b1515">3</text></g><g transform="translate(157.5 52.5)"><circle r="10"/><text fill="#2b1515">1</text></g>
      <g transform="translate(0 105)"><circle r="10"/><text fill="#2b1515">1</text></g><g transform="translate(105 105)"><circle r="10"/><text fill="#2b1515">2</text></g><g transform="translate(157.5 105)"><circle r="10"/><text fill="#2b1515">2</text></g><g transform="translate(210 105)"><circle r="10"/><text fill="#2b1515">1</text></g>
      <g transform="translate(0 157.5)"><circle r="10"/><text fill="#2b1515">2</text></g><g transform="translate(157.5 157.5)"><circle r="10"/><text fill="#2b1515">2</text></g><g transform="translate(210 157.5)"><circle r="10"/><text fill="#2b1515">0</text></g>
      <g transform="translate(0 210)"><circle r="10"/><text fill="#2b1515">0</text></g><g transform="translate(52.5 210)"><circle r="10"/><text fill="#2b1515">1</text></g><g transform="translate(157.5 210)"><circle r="10"/><text fill="#2b1515">1</text></g><g transform="translate(210 210)"><circle r="10"/><text fill="#2b1515">1</text></g>
    </g>
  </g>

  <g transform="translate(316 188)" filter="url(#glow)"><path d="M0 20H69" stroke="#ff9c55" stroke-width="5" stroke-linecap="round"/><path d="m59 8 14 12-14 12" fill="none" stroke="#ff9c55" stroke-width="5" stroke-linecap="round" stroke-linejoin="round"/><text x="35" y="52" fill="#cab8b2" font-family="system-ui, sans-serif" font-size="11" text-anchor="middle">0,0:B</text></g>

  <g data-after-board="true" transform="translate(460 112)">
    <rect width="210" height="210" rx="13" fill="#0b1116" stroke="#267e80" stroke-width="3"/>
    <path d="M52.5 0V210M105 0V210M157.5 0V210M0 52.5H210M0 105H210M0 157.5H210" stroke="#4a5554" stroke-width="3"/>
    <g fill="url(#stone)" opacity=".78">
      <rect x="5" y="5" width="42.5" height="42.5" rx="7"/><rect x="57" y="5" width="43" height="42" rx="7"/><rect x="110" y="5" width="42" height="42" rx="7"/><rect x="162" y="5" width="43" height="42" rx="7"/>
      <rect x="5" y="57" width="42" height="43" rx="7"/><rect x="57" y="57" width="43" height="43" rx="7"/><rect x="110" y="57" width="42" height="43" rx="7"/><rect x="162" y="57" width="43" height="43" rx="7"/>
      <rect x="5" y="110" width="42" height="42" rx="7"/><rect x="57" y="110" width="43" height="42" rx="7"/><rect x="110" y="110" width="42" height="42" rx="7"/><rect x="162" y="110" width="43" height="42" rx="7"/>
      <rect x="5" y="162" width="42" height="43" rx="7"/><rect x="57" y="162" width="43" height="43" rx="7"/><rect x="110" y="162" width="42" height="43" rx="7"/><rect x="162" y="162" width="43" height="43" rx="7"/>
    </g>
    <line x1="10" y1="10" x2="42.5" y2="42.5" stroke="#5b2c1f" stroke-width="12" stroke-linecap="round" opacity=".65"/>
    <line x1="10" y1="10" x2="42.5" y2="42.5" stroke="url(#ceramic)" stroke-width="7" stroke-linecap="round" filter="url(#glow)"/>
    <g fill="url(#gauge)" stroke="#351b18" stroke-width="1.5" font-family="system-ui, sans-serif" font-size="9" font-weight="900" text-anchor="middle" dominant-baseline="central">
      <g data-satisfied="true"><circle r="11" fill="url(#cool)" stroke="#0b5557"/><text fill="#06383a">1</text></g><g transform="translate(52.5)"><circle r="10"/><text fill="#2b1515">0</text></g><g transform="translate(210)"><circle r="10"/><text fill="#2b1515">0</text></g>
      <g transform="translate(0 52.5)"><circle r="10"/><text fill="#2b1515">0</text></g><g transform="translate(52.5 52.5)"><circle r="10"/><text fill="#2b1515">3</text></g><g transform="translate(157.5 52.5)"><circle r="10"/><text fill="#2b1515">1</text></g>
      <g transform="translate(0 105)"><circle r="10"/><text fill="#2b1515">1</text></g><g transform="translate(105 105)"><circle r="10"/><text fill="#2b1515">2</text></g><g transform="translate(157.5 105)"><circle r="10"/><text fill="#2b1515">2</text></g><g transform="translate(210 105)"><circle r="10"/><text fill="#2b1515">1</text></g>
      <g transform="translate(0 157.5)"><circle r="10"/><text fill="#2b1515">2</text></g><g transform="translate(157.5 157.5)"><circle r="10"/><text fill="#2b1515">2</text></g><g transform="translate(210 157.5)"><circle r="10"/><text fill="#2b1515">0</text></g>
      <g transform="translate(0 210)"><circle r="10"/><text fill="#2b1515">0</text></g><g transform="translate(52.5 210)"><circle r="10"/><text fill="#2b1515">1</text></g><g transform="translate(157.5 210)"><circle r="10"/><text fill="#2b1515">1</text></g><g transform="translate(210 210)"><circle r="10"/><text fill="#2b1515">1</text></g>
    </g>
  </g>
  <g font-family="system-ui, sans-serif"><text x="360" y="365" fill="#fff4e8" font-size="14" text-anchor="middle" font-weight="750">左键/点按正向循环 · 右键反向循环</text><text x="360" y="389" fill="#8fa0a3" font-size="12" text-anchor="middle">左上“1”测点现在恰有 1 块导流板端接，且没有闭环</text></g>
</svg>
