<svg xmlns="http://www.w3.org/2000/svg" viewBox="0 0 720 420" role="img" aria-labelledby="title desc" data-tutorial-version="1" data-game-id="paper-crane-sanctuary" data-level-id="dawn-perch-101" data-state="operation" data-action="3,0&gt;3,2" data-middle="3,1" data-before-cranes="8" data-after-cranes="7" data-after-board="#PP.#|##P.#|##PPP|#P..#|#####">
  <title id="title">纸鹤归巢台第一关一次真实合法跳跃</title>
  <desc id="desc">坐标三零的纸鹤竖直越过三一的纸鹤，落到三二的空栖位，纸鹤从八只变为七只。</desc>
  <metadata>{"levelId":"dawn-perch-101","state":"operation","action":"3,0&gt;3,2","middle":"3,1","beforeCranes":8,"afterCranes":7}</metadata>
  <defs>
    <linearGradient id="bg" x1="0" y1="0" x2="1" y2="1"><stop stop-color="#17102f"/><stop offset="1" stop-color="#4c214e"/></linearGradient>
    <g id="p"><rect width="38" height="38" rx="9" fill="#fff4dd" opacity=".13" stroke="#eac98a" stroke-width="1.5"/><circle cx="19" cy="20" r="8" fill="none" stroke="#eac98a" stroke-width="2" stroke-dasharray="3 3"/></g>
    <g id="c"><use href="#p"/><path d="M7 23 19 10l4 10 10-6-7 12-7 5-6-6z" fill="#fff7df" stroke="#7f496f" stroke-width="1.4"/><path d="m25 16 8-8-2 10z" fill="#fff7df" stroke="#7f496f"/></g>
    <marker id="arrow" markerWidth="10" markerHeight="10" refX="8" refY="5" orient="auto"><path d="m0 0 10 5-10 5z" fill="#ffd36f"/></marker>
  </defs>
  <rect width="720" height="420" rx="28" fill="url(#bg)"/>
  <text x="42" y="50" fill="#f6d89a" font-size="17" font-family="system-ui,sans-serif" letter-spacing="3">ONE LEGAL MOVE · 3,0 → 3,2</text>
  <g font-family="system-ui,sans-serif">
    <text x="172" y="88" text-anchor="middle" fill="#fff7df" font-size="20" font-weight="700">跳跃前 · 8 鹤</text>
    <text x="548" y="88" text-anchor="middle" fill="#fff7df" font-size="20" font-weight="700">落地后 · 7 鹤</text>
  </g>
  <g transform="translate(77 104)">
    <use href="#c" x="40"/><use href="#c" x="80"/><use href="#c" x="120"/>
    <use href="#c" x="80" y="40"/><use href="#c" x="120" y="40"/>
    <use href="#c" x="80" y="80"/><use href="#p" x="120" y="80"/><use href="#c" x="160" y="80"/>
    <use href="#c" x="40" y="120"/><use href="#p" x="80" y="120"/><use href="#p" x="120" y="120"/>
    <path d="M139 20v76" fill="none" stroke="#ffd36f" stroke-width="5" stroke-linecap="round" marker-end="url(#arrow)"/>
    <circle cx="139" cy="59" r="17" fill="none" stroke="#ff8f8f" stroke-width="3"/>
  </g>
  <g transform="translate(453 104)">
    <use href="#c" x="40"/><use href="#c" x="80"/><use href="#p" x="120"/>
    <use href="#c" x="80" y="40"/><use href="#p" x="120" y="40"/>
    <use href="#c" x="80" y="80"/><use href="#c" x="120" y="80"/><use href="#c" x="160" y="80"/>
    <use href="#c" x="40" y="120"/><use href="#p" x="80" y="120"/><use href="#p" x="120" y="120"/>
    <circle cx="139" cy="99" r="21" fill="none" stroke="#8ff2d1" stroke-width="3"/>
  </g>
  <rect x="54" y="318" width="612" height="66" rx="18" fill="#120b25" opacity=".72"/>
  <g fill="#fff7df" font-family="system-ui,sans-serif" text-anchor="middle"><text x="360" y="346" font-size="18" font-weight="700">正交跨过恰好一只纸鹤，落到紧接着的空栖位</text><text x="360" y="370" font-size="15" fill="#dbc6da">起点与被跨位置同时变空；斜跳、远跳与落在纸鹤上都无效</text></g>
</svg>
